 http://www.imdb.com/title/tt1231277/

Source: S.Darko.720p.BluRay.x264.-.BestHD Thanks!

Subs: Danish, Dutch, English, Hebrew, Romanian, Servian, Swedish, Vietnamese.

Sample and Screens included.

General
Complete name                            : S.Darko-720p MP4 AAC x264 BRRip 2009-CC.mp4
Format                                   : MPEG-4
Format profile                           : Base Media
Codec ID                                 : isom
File size                                : 2.81 GiB
Duration                                 : 1h 43mn
Overall bit rate mode                    : Variable
Overall bit rate                         : 3 898 Kbps
Encoded date                             : UTC 2012-12-28 08:41:49

Video
ID                                       : 1
Format                                   : AVC
Format/Info                              : Advanced Video Codec
Format profile                           : High@L4.1
Format settings, CABAC                   : Yes
Format settings, ReFrames                : 5 frames
Codec ID                                 : avc1
Codec ID/Info                            : Advanced Video Coding
Duration                                 : 1h 43mn
Bit rate                                 : 3 651 Kbps
Maximum bit rate                         : 28.6 Mbps
Width                                    : 1 280 pixels
Height                                   : 720 pixels
Display aspect ratio                     : 16:9
Frame rate mode                          : Variable
Frame rate                               : 23.976 fps
Minimum frame rate                       : 13.605 fps
Maximum frame rate                       : 24.390 fps
Color space                              : YUV
Chroma subsampling                       : 4:2:0
Bit depth                                : 8 bits
Scan type                                : Progressive
Bits/(Pixel*Frame)                       : 0.165
Stream size                              : 2.53 GiB (90%)
Writing library                          : x264 core 112

Audio
ID                                       : 2
Format                                   : AAC
Format/Info                              : Advanced Audio Codec
Format profile                           : LC
Codec ID                                 : 40
Duration                                 : 1h 43mn
Bit rate mode                            : Variable
Bit rate                                 : 384 Kbps
Maximum bit rate                         : 708 Kbps
Channel(s)                               : 6 channels
Channel positions                        : Front: L C R, Side: L R, LFE
Sampling rate                            : 48.0 KHz
Compression mode                         : Lossy
Delay relative to video                  : 83ms
Stream size                              : 283 MiB (10%)
Language                                 : English

Enjoy...

Requested by aartje80

Coming soon: Apocalypse Hitler, Twilight Samurai, The Big Heat, Broken Arrow, Superman Returns and more..